# xmcd
#
# Track frame offsets: 
#        150
#        30403
#        59668
#        144809
#        171044
#        182842
#        195209
#        218270
#        235774
#        258104
#        285876
#        292682
#        309860
#
# Disc length: 4255 seconds
#
# Revision: 0
# Processed by: cddbd v1.5.2PL0 Copyright (c) Steve Scherf et al.
# Submitted via: ExactAudioCopy v1.0b3
#
DISCID=9a109d0d
DTITLE=Various Artist - Svenska Skratt [CD 13)
DYEAR=2011
DGENRE=Comedy
TTITLE0=Rolf Bengtson - Dagen Efter Kvällen Före
TTITLE1=Rolf Bengtson - Elisabeth
TTITLE2=Rolf Bengtson - Goddag, Mitt Namn Är Rolf Bengtson
TTITLE3=Rolf Bengtson - Ytlänningen
TTITLE4=Rolv Wesenlund and Harald Heide Steen - Hos Tandläkaren
TTITLE5=Eva Rydberg - Den Närsynta Bofinken Knut
TTITLE6=Birgitta Andersson - Sverigebruden
TTITLE7=Lasse O'Månsson and Bertil Pettersson - Korven
TTITLE8=Lasse O'Månsson and Bertil Pettersson - Badmästaren
TTITLE9=Lasse O'Månsson and Bertil Pettersson - Finns Det En Läkare I Sa
TTITLE9=longen?
TTITLE10=Lasse O'Månsson and Bertil Pettersson - En Stilla Bärs (Eller D
TTITLE10=en Kärva Verkligheten Bakom En Insändarskribents Vardag)
TTITLE11=Lasse O'Månsson and Bertil Pettersson - Lungornas Vals
TTITLE12=Jarl Borssén - När Jag Blev Struken Ur Församlinga
EXTD=
EXTT0=
EXTT1=
EXTT2=
EXTT3=
EXTT4=
EXTT5=
EXTT6=
EXTT7=
EXTT8=
EXTT9=
EXTT10=
EXTT11=
EXTT12=
PLAYORDER=
